<?xml version="1.0" encoding="iso-8859-1"?>
<!-- Generator: Adobe Illustrator 19.0.0, SVG Export Plug-In . SVG Version: 6.00 Build 0)  -->
<svg version="1.1" id="Layer_1" xmlns="http://www.w3.org/2000/svg" xmlns:xlink="http://www.w3.org/1999/xlink" x="0px" y="0px" fill='#db542e'
	 viewBox="0 0 496.008 496.008" style="enable-background:new 0 0 496.008 496.008;" xml:space="preserve">
<g>
	<g>
		<path d="M494.996,190.728L472.48,72.568c-4.328-22.704-26.32-44.696-49.028-49.028L305.288,1.032
			C301.728,0.348,297.876,0,293.84,0c-21.124,0-45.132,9.268-58.4,22.524L12.6,245.364c-8.12,8.116-12.596,18.96-12.596,30.52
			c0,11.572,4.476,22.404,12.596,30.536l177.008,177.004c8.12,8.116,18.96,12.584,30.52,12.584c11.564,0,22.404-4.468,30.524-12.584
			l222.844-222.84C489.612,244.452,499.256,213.128,494.996,190.728z M433.788,104.436c-5.5,5.48-12.796,8.496-20.56,8.496
			c-7.764,0-15.06-3.016-20.544-8.496c-11.332-11.348-11.332-29.776,0-41.108c5.484-5.496,12.78-8.512,20.544-8.512
			c7.764,0,15.06,3.016,20.56,8.512C445.112,74.66,445.112,93.088,433.788,104.436z"/>
	</g>
</g>
<g>
</g>
<g>
</g>
<g>
</g>
<g>
</g>
<g>
</g>
<g>
</g>
<g>
</g>
<g>
</g>
<g>
</g>
<g>
</g>
<g>
</g>
<g>
</g>
<g>
</g>
<g>
</g>
<g>
</g>
</svg>
